<svg version="1.1" id="Layer_1" xmlns="http://www.w3.org/2000/svg" xmlns:xlink="http://www.w3.org/1999/xlink" x="0px" y="0px"
	 width="100%" viewBox="0 0 750 750" enable-background="new 0 0 750 750" xml:space="preserve">
<path fill="#90B26C" opacity="1.000000" stroke="none" 
	d="
M156.981064,623.059631 
	C142.158463,614.114319 129.744156,602.285156 118.224792,589.601440 
	C87.521362,555.794617 68.544014,516.262207 61.869400,471.000946 
	C56.846405,436.939575 58.633255,403.272003 69.000359,370.321289 
	C76.101852,347.750000 86.821457,326.957550 101.991524,308.134521 
	C103.083389,309.086151 103.728302,310.050903 103.890770,311.091064 
	C105.423996,320.907013 106.035698,330.950745 108.487724,340.525543 
	C122.945221,396.979889 156.501251,437.780182 209.584763,462.285736 
	C213.404877,464.049255 217.041901,466.209351 220.764038,468.185089 
	C227.331543,480.905457 236.921112,489.960388 251.725632,493.758606 
	C253.081757,495.888245 255.006592,497.883179 254.614166,499.173279 
	C252.358643,506.588348 250.350662,514.255859 246.771454,521.054749 
	C239.068497,535.686951 231.396500,550.491516 222.003326,564.041077 
	C208.111115,584.080383 190.496246,600.733215 169.914963,614.072021 
	C165.511627,616.925842 161.287659,620.056519 156.981064,623.059631 
z"/>
<path fill="#ED8622" opacity="1.000000" stroke="none" 
	d="
M476.287354,492.531647 
	C480.049286,493.045624 483.797272,493.722015 487.575500,494.045654 
	C504.800507,495.521301 518.012390,488.450104 528.536377,474.968719 
	C529.625183,476.119843 530.403259,477.031494 530.846985,478.084106 
	C538.676392,496.657532 544.257080,515.740479 546.202576,535.972961 
	C548.002197,554.689209 546.660828,573.059265 542.918762,591.327820 
	C539.029541,610.314941 532.049316,628.179810 522.596375,645.104492 
	C520.204590,649.386780 518.252075,653.914307 516.097656,658.329163 
	C495.230713,663.531860 474.202271,663.632812 453.234100,659.467896 
	C400.667267,649.026367 359.211670,621.089600 327.193634,577.837524 
	C333.776428,576.088135 340.346680,574.944031 346.947937,574.022339 
	C369.627594,570.855591 391.152924,564.044250 411.247986,553.096069 
	C432.113342,541.728210 450.441681,527.065186 465.614807,508.715607 
	C469.574158,503.927368 472.575104,498.346680 476.100372,492.987793 
	C476.184479,492.845612 476.287354,492.531647 476.287354,492.531647 
z"/>
<path fill="#BEDABB" opacity="1.000000" stroke="none" 
	d="
M220.783356,467.807983 
	C217.041901,466.209351 213.404877,464.049255 209.584763,462.285736 
	C156.501251,437.780182 122.945221,396.979889 108.487724,340.525543 
	C106.035698,330.950745 105.423996,320.907013 103.890770,311.091064 
	C103.728302,310.050903 103.083389,309.086151 102.272690,307.943359 
	C119.320770,285.089661 140.810150,267.066132 166.363876,254.349976 
	C179.192322,247.966232 192.983704,243.517548 206.886673,238.384949 
	C207.952393,238.169891 208.471039,237.763657 208.989685,237.357407 
	C209.445190,237.267639 209.900711,237.177856 210.862915,237.299301 
	C211.909088,237.128006 212.448563,236.745499 212.988052,236.363007 
	C214.275482,236.181473 215.562897,235.999939 217.364655,236.181244 
	C223.328293,247.173401 229.200531,257.612427 234.094543,268.491516 
	C238.088913,277.370758 240.914566,286.775757 244.224518,296.263062 
	C244.751373,297.113373 245.312103,297.648285 245.870422,298.482605 
	C245.882919,299.180847 245.897797,299.579681 245.711517,300.165710 
	C245.961075,300.965790 246.411789,301.578705 246.877319,302.593872 
	C247.913193,307.338043 248.934235,311.679993 249.950729,316.451843 
	C250.952484,322.919250 251.958786,328.956726 252.721527,335.197327 
	C252.947464,336.306793 253.416962,337.213196 253.895615,338.561554 
	C253.923645,341.666779 253.942520,344.330017 253.676300,347.296112 
	C253.582199,355.068207 253.773224,362.537506 253.962311,370.446838 
	C253.650940,374.259918 253.341492,377.632904 252.767838,381.210388 
	C252.655151,382.612366 252.806656,383.809906 252.957840,385.338959 
	C252.962326,386.112549 252.967148,386.554596 252.688004,387.289368 
	C251.957016,393.011322 251.509964,398.440491 251.062927,403.869690 
	C241.087479,407.171783 232.258514,412.301208 226.052353,420.962097 
	C215.704895,435.402344 213.730591,450.944824 220.783356,467.807983 
z"/>
<path fill="#1A639B" opacity="1.000000" stroke="none" 
	d="
M333.947021,221.230621 
	C325.633148,218.743027 317.391632,215.973648 308.992859,213.816650 
	C272.859680,204.536865 236.953964,206.245010 201.674835,217.720383 
	C185.311005,223.043121 169.521027,230.130051 153.088654,236.566940 
	C153.232773,234.759872 153.227386,232.224747 153.661804,229.767349 
	C161.238495,186.906570 179.295410,149.072647 208.657684,116.884880 
	C247.796799,73.979492 296.630219,50.016151 354.168274,43.463360 
	C357.468445,43.087521 360.816833,43.134758 364.852539,43.302967 
	C367.261810,43.895863 368.961273,44.170883 370.667328,44.446972 
	C364.692780,55.415665 358.504883,65.823235 353.214935,76.668770 
	C338.141998,107.571671 330.766937,140.507462 330.285248,174.719986 
	C330.067291,190.203278 332.640228,205.725861 333.947021,221.230621 
z"/>
<path fill="#E0453F" opacity="1.000000" stroke="none" 
	d="
M524.265991,417.902039 
	C519.462463,413.829102 519.513184,413.187683 524.384033,409.498840 
	C571.667847,373.689240 597.601501,326.026215 603.295166,267.161621 
	C603.803894,261.902283 604.067810,256.619293 604.513367,250.398880 
	C606.308167,251.579483 607.687683,252.290649 608.837158,253.271378 
	C652.710693,290.705902 680.260620,337.672485 689.714478,394.621643 
	C697.307800,440.362305 692.339355,484.922974 673.819336,527.697205 
	C672.631592,530.440491 671.155579,533.059021 669.232971,535.711670 
	C667.277710,532.190613 666.292053,528.473694 664.461548,525.234131 
	C656.400940,510.968536 648.774292,496.335754 637.184875,484.482910 
	C626.760193,473.821350 616.619568,462.705505 605.097656,453.334442 
	C587.656494,439.149078 567.781250,428.739594 546.317261,421.819885 
	C539.242554,419.539093 532.185669,415.932312 524.265991,417.902039 
z"/>
<path fill="#96CCF6" opacity="1.000000" stroke="none" 
	d="
M585.862976,258.964996 
	C583.927856,277.406311 579.359985,295.216736 572.651123,312.459991 
	C563.189209,336.779297 549.527222,358.509369 530.660095,376.582123 
	C521.812866,385.056885 511.940369,392.498260 502.207336,399.985229 
	C499.798248,401.838409 496.117340,402.870270 493.029175,402.852631 
	C483.772858,402.799805 475.311340,404.933350 467.347961,409.623413 
	C465.881500,410.487061 462.862000,410.973572 462.058868,410.157806 
	C460.939392,409.020752 460.536041,406.293030 461.025696,404.591156 
	C467.674561,381.481750 465.803802,359.042786 454.755432,337.824646 
	C442.363098,314.025452 423.421753,297.742096 396.975891,290.921875 
	C395.276855,290.483673 393.863617,288.937195 392.317444,287.906250 
	C393.787659,286.499390 395.020355,284.412750 396.768707,283.801727 
	C404.897858,280.960968 411.774841,276.270935 416.816193,269.482330 
	C426.985626,255.788452 429.961273,240.791229 423.295380,224.535736 
	C422.792603,223.309677 422.366180,222.052277 422.305725,220.410019 
	C432.430756,218.345734 442.097473,215.908157 451.890564,215.187088 
	C468.959839,213.930252 486.004333,215.590942 502.659424,219.473740 
	C530.789185,226.031601 556.012390,238.972168 579.368042,255.772888 
	C581.299194,257.162018 583.687195,257.915924 585.862976,258.964996 
z"/>
<path fill="#4191CD" opacity="1.000000" stroke="none" 
	d="
M334.130432,221.539062 
	C332.640228,205.725861 330.067291,190.203278 330.285248,174.719986 
	C330.766937,140.507462 338.141998,107.571671 353.214935,76.668770 
	C358.504883,65.823235 364.692780,55.415665 370.667328,44.446972 
	C368.961273,44.170883 367.261810,43.895863 365.316406,43.350639 
	C366.503784,42.806652 367.935638,42.301334 369.370605,42.292374 
	C432.503906,41.897907 487.188568,62.757877 531.829041,107.880951 
	C540.546936,116.693069 547.526367,127.225090 555.113037,137.603333 
	C553.145386,138.457153 551.330750,139.030609 549.605652,138.831039 
	C529.144104,136.464081 508.885284,138.084885 488.924774,142.617966 
	C459.609650,149.275482 433.033539,162.082779 409.347412,180.554108 
	C403.324432,185.251068 398.413422,191.373932 392.991455,196.841629 
	C391.318878,196.753113 389.646271,196.664597 387.473877,196.218964 
	C386.319519,195.894409 385.664948,195.926956 385.010376,195.959503 
	C365.190308,195.052002 350.273743,203.084320 340.712311,220.549362 
	C338.860809,223.931320 336.884125,223.582123 334.130432,221.539062 
z"/>
<path fill="#E76034" opacity="1.000000" stroke="none" 
	d="
M524.350342,418.222687 
	C532.185669,415.932312 539.242554,419.539093 546.317261,421.819885 
	C567.781250,428.739594 587.656494,439.149078 605.097656,453.334442 
	C616.619568,462.705505 626.760193,473.821350 637.184875,484.482910 
	C648.774292,496.335754 656.400940,510.968536 664.461548,525.234131 
	C666.292053,528.473694 667.277710,532.190613 668.968018,535.920166 
	C663.087585,551.767334 654.113831,565.769897 643.809326,578.894897 
	C615.987000,614.332642 580.652832,639.198730 537.759888,653.113159 
	C530.968628,655.316345 523.890625,656.635498 516.521423,658.346252 
	C518.252075,653.914307 520.204590,649.386780 522.596375,645.104492 
	C532.049316,628.179810 539.029541,610.314941 542.918762,591.327820 
	C546.660828,573.059265 548.002197,554.689209 546.202576,535.972961 
	C544.257080,515.740479 538.676392,496.657532 530.846985,478.084106 
	C530.403259,477.031494 529.625183,476.119843 528.817627,474.776550 
	C534.375305,464.196564 537.368591,453.460968 535.247620,441.625366 
	C533.690735,432.937744 529.894592,425.367859 524.350342,418.222687 
z"/>
<path fill="#9DBD7A" opacity="1.000000" stroke="none" 
	d="
M157.138229,623.356140 
	C161.287659,620.056519 165.511627,616.925842 169.914963,614.072021 
	C190.496246,600.733215 208.111115,584.080383 222.003326,564.041077 
	C231.396500,550.491516 239.068497,535.686951 246.771454,521.054749 
	C250.350662,514.255859 252.358643,506.588348 254.614166,499.173279 
	C255.006592,497.883179 253.081757,495.888245 252.095276,493.926849 
	C255.424820,493.820587 258.955597,494.524963 262.331970,494.073822 
	C267.768555,493.347473 269.020813,496.105377 269.813477,500.657379 
	C276.333252,538.098206 292.901917,570.907593 316.654999,600.211914 
	C329.588165,616.167664 344.637604,630.009949 361.213196,642.163452 
	C362.273743,642.941040 363.389709,643.642944 365.661102,645.178650 
	C342.761780,655.611023 320.280853,660.895935 297.104401,662.759827 
	C245.799942,666.885742 199.537430,652.283264 157.138229,623.356140 
z"/>
<path fill="#7CB7E6" opacity="1.000000" stroke="none" 
	d="
M393.186676,197.149170 
	C398.413422,191.373932 403.324432,185.251068 409.347412,180.554108 
	C433.033539,162.082779 459.609650,149.275482 488.924774,142.617966 
	C508.885284,138.084885 529.144104,136.464081 549.605652,138.831039 
	C551.330750,139.030609 553.145386,138.457153 555.252808,137.923462 
	C561.670837,148.388382 568.545593,158.810654 573.678772,170.029724 
	C585.608582,196.103256 588.673828,223.833908 586.844299,252.228714 
	C586.717041,254.204453 586.288940,256.160797 585.931885,258.545593 
	C583.687195,257.915924 581.299194,257.162018 579.368042,255.772888 
	C556.012390,238.972168 530.789185,226.031601 502.659424,219.473740 
	C486.004333,215.590942 468.959839,213.930252 451.890564,215.187088 
	C442.097473,215.908157 432.430756,218.345734 422.288940,220.031250 
	C415.055145,209.140305 405.761536,201.352997 393.186676,197.149170 
z"/>
<path fill="#F0CF2D" opacity="1.000000" stroke="none" 
	d="
M292.012146,492.986725 
	C290.080963,489.174957 291.094421,486.243439 294.121307,483.278046 
	C307.039642,470.621948 310.595093,455.312714 306.594635,437.904694 
	C306.215912,436.256805 307.014160,434.338470 307.265961,432.545715 
	C308.950439,433.269379 311.024231,433.588135 312.261139,434.777313 
	C331.605347,453.375671 354.339050,462.939636 381.438721,461.323700 
	C401.983887,460.098572 419.820404,452.580322 434.975281,438.678741 
	C436.815613,436.990509 438.424957,435.003815 440.433319,433.562195 
	C441.730713,432.630951 443.560242,432.441040 445.151306,431.918884 
	C445.702789,433.675537 446.714111,435.429382 446.724731,437.189301 
	C446.766632,444.126282 445.308289,451.289764 446.571594,457.959137 
	C449.733795,474.653046 460.698792,485.343994 476.128052,492.242859 
	C476.287354,492.531647 476.184479,492.845612 475.709351,492.898071 
	C472.422211,493.131989 469.076172,492.383789 466.883362,493.643341 
	C450.633636,502.976715 433.122192,508.572998 414.940735,512.580200 
	C400.325531,515.801514 385.495148,515.738220 370.836334,514.725586 
	C358.096802,513.845520 345.135803,511.841766 332.976593,508.067078 
	C319.960052,504.026245 307.782898,497.295898 295.173981,491.891937 
	C294.415710,491.566956 293.079468,492.590607 292.012146,492.986725 
z"/>
<path fill="#EDBB22" opacity="1.000000" stroke="none" 
	d="
M291.959290,493.406128 
	C293.079468,492.590607 294.415710,491.566956 295.173981,491.891937 
	C307.782898,497.295898 319.960052,504.026245 332.976593,508.067078 
	C345.135803,511.841766 358.096802,513.845520 370.836334,514.725586 
	C385.495148,515.738220 400.325531,515.801514 414.940735,512.580200 
	C433.122192,508.572998 450.633636,502.976715 466.883362,493.643341 
	C469.076172,492.383789 472.422211,493.131989 475.625244,493.040222 
	C472.575104,498.346680 469.574158,503.927368 465.614807,508.715607 
	C450.441681,527.065186 432.113342,541.728210 411.247986,553.096069 
	C391.152924,564.044250 369.627594,570.855591 346.947937,574.022339 
	C340.346680,574.944031 333.776428,576.088135 327.090393,577.508789 
	C316.316101,564.734436 308.152618,550.012634 302.603027,534.172241 
	C298.016602,521.080994 295.397308,507.300568 291.959290,493.406128 
z"/>
<path fill="#9DC183" opacity="1.000000" stroke="none" 
	d="
M252.971954,386.996643 
	C252.967148,386.554596 252.962326,386.112549 253.225876,385.134155 
	C253.340179,383.400482 253.186111,382.203217 253.032043,381.005920 
	C253.341492,377.632904 253.650940,374.259918 254.266281,370.156494 
	C254.368591,361.948456 254.164993,354.470886 253.961395,346.993286 
	C253.942520,344.330017 253.923645,341.666779 253.932709,338.208069 
	C253.628799,336.606506 253.296951,335.800354 252.965103,334.994232 
	C251.958786,328.956726 250.952484,322.919250 250.293777,316.397400 
	C252.137833,314.188049 253.575684,312.407837 255.140594,310.747314 
	C263.184448,302.212067 270.519867,292.800323 279.528992,285.440674 
	C289.047516,277.664917 299.824432,271.202667 310.710876,265.404358 
	C318.599274,261.202881 327.562622,259.019684 336.046631,255.936493 
	C336.639740,256.445099 337.578674,256.846466 337.774628,257.478241 
	C341.338928,268.969421 349.068420,276.817780 359.296692,282.614960 
	C360.731415,283.428131 361.737091,284.998291 362.941345,286.218048 
	C361.476654,287.102448 360.117554,288.424530 358.531799,288.807129 
	C319.546783,298.213135 293.835419,330.213074 288.223846,368.958160 
	C286.479828,380.999969 287.617981,393.211182 291.066467,405.077820 
	C291.609497,406.946533 291.032928,409.140656 290.974030,411.184265 
	C289.027313,410.783417 286.988556,410.626984 285.151306,409.935333 
	C279.888336,407.954102 274.707062,405.755829 269.207947,403.049561 
	C267.611420,400.839386 266.466064,399.044739 264.957397,397.640350 
	C261.047638,394.000763 256.977875,390.532990 252.971954,386.996643 
z"/>
<path fill="#93B674" opacity="1.000000" stroke="none" 
	d="
M336.071350,255.542877 
	C327.562622,259.019684 318.599274,261.202881 310.710876,265.404358 
	C299.824432,271.202667 289.047516,277.664917 279.528992,285.440674 
	C270.519867,292.800323 263.184448,302.212067 255.140594,310.747314 
	C253.575684,312.407837 252.137833,314.188049 250.298325,315.967529 
	C248.934235,311.679993 247.913193,307.338043 246.905029,302.263214 
	C246.582825,301.013092 246.247742,300.495819 245.912659,299.978546 
	C245.897797,299.579681 245.882919,299.180847 245.885483,298.157593 
	C245.354767,297.004700 244.806580,296.476166 244.258408,295.947662 
	C240.914566,286.775757 238.088913,277.370758 234.094543,268.491516 
	C229.200531,257.612427 223.328293,247.173401 217.755798,236.178406 
	C217.632614,235.812729 217.706436,235.720734 218.109283,235.787155 
	C219.340393,235.504166 220.168671,235.154755 220.996948,234.805328 
	C221.381622,234.757172 221.766281,234.709015 222.798737,234.727234 
	C224.713303,234.353882 225.980072,233.914139 227.246857,233.474411 
	C227.640549,233.413864 228.034241,233.353302 229.036499,233.506607 
	C234.831512,232.928848 240.017960,232.137222 245.204391,231.345612 
	C245.608658,231.316818 246.012909,231.288040 247.050873,231.506958 
	C256.114746,231.605957 264.544922,231.457260 272.975098,231.308563 
	C273.378387,231.307785 273.781708,231.306992 274.670288,231.659546 
	C281.430573,232.763702 287.705536,233.514511 293.980530,234.265320 
	C294.374847,234.293991 294.769196,234.322662 295.584229,234.667816 
	C296.997925,235.076385 297.990906,235.168472 298.983887,235.260590 
	C299.377838,235.294281 299.771759,235.327972 300.632904,235.715057 
	C312.386841,240.057968 323.673584,244.047470 334.960327,248.036972 
	C334.960327,248.036972 335.000000,248.000000 334.972229,248.394867 
	C335.348511,249.858093 335.752625,250.926437 336.156738,251.994781 
	C336.136505,253.046295 336.116302,254.097778 336.071350,255.542877 
z"/>
<path fill="#A8CA95" opacity="1.000000" stroke="none" 
	d="
M252.687988,387.289368 
	C256.977875,390.532990 261.047638,394.000763 264.957397,397.640350 
	C266.466064,399.044739 267.611420,400.839386 268.918945,402.820068 
	C263.237122,403.404297 257.558655,403.624725 251.471558,403.857422 
	C251.509964,398.440491 251.957016,393.011322 252.687988,387.289368 
z"/>
<path fill="#C5DCB5" opacity="1.000000" stroke="none" 
	d="
M334.901306,247.689056 
	C323.673584,244.047470 312.386841,240.057968 300.923584,235.774841 
	C308.309906,237.607574 315.947968,239.504898 323.405212,241.952942 
	C327.378937,243.257431 331.040039,245.514191 334.901306,247.689056 
z"/>
<path fill="#C5DCB5" opacity="1.000000" stroke="none" 
	d="
M272.713989,230.976776 
	C264.544922,231.457260 256.114746,231.605957 247.354797,231.519135 
	C249.384308,230.893661 251.743057,230.180771 254.103012,230.176712 
	C260.219360,230.166214 266.336212,230.467911 272.713989,230.976776 
z"/>
<path fill="#C5DCB5" opacity="1.000000" stroke="none" 
	d="
M293.754883,233.940460 
	C287.705536,233.514511 281.430573,232.763702 274.971252,231.691284 
	C281.034393,232.118347 287.281830,232.866974 293.754883,233.940460 
z"/>
<path fill="#C5DCB5" opacity="1.000000" stroke="none" 
	d="
M244.748596,231.222382 
	C240.017960,232.137222 234.831512,232.928848 229.335510,233.502075 
	C234.114899,232.555511 239.203842,231.827332 244.748596,231.222382 
z"/>
<path fill="#C5DCB5" opacity="1.000000" stroke="none" 
	d="
M226.888977,233.338684 
	C225.980072,233.914139 224.713303,234.353882 223.083572,234.668152 
	C223.990784,234.096115 225.260956,233.649536 226.888977,233.338684 
z"/>
<path fill="#C5DCB5" opacity="1.000000" stroke="none" 
	d="
M336.399475,251.767624 
	C335.752625,250.926437 335.348511,249.858093 334.953613,248.414581 
	C335.522583,249.206451 336.082397,250.373459 336.399475,251.767624 
z"/>
<path fill="#C5DCB5" opacity="1.000000" stroke="none" 
	d="
M298.780334,234.952179 
	C297.990906,235.168472 296.997925,235.076385 295.874207,234.731445 
	C296.687866,234.533661 297.632324,234.588715 298.780334,234.952179 
z"/>
<path fill="#C5DCB5" opacity="1.000000" stroke="none" 
	d="
M220.783218,234.602676 
	C220.168671,235.154755 219.340393,235.504166 218.156128,235.751328 
	C218.723251,235.232727 219.646362,234.816376 220.783218,234.602676 
z"/>
<path fill="#7CB7E6" opacity="1.000000" stroke="none" 
	d="
M385.203491,196.214386 
	C385.664948,195.926956 386.319519,195.894409 387.079437,196.082367 
	C386.588715,196.358368 385.992676,196.413818 385.203491,196.214386 
z"/>
<path fill="#C5DCB5" opacity="1.000000" stroke="none" 
	d="
M208.702209,237.298187 
	C208.471039,237.763657 207.952393,238.169891 207.270508,238.394623 
	C207.543091,237.888382 207.978912,237.563660 208.702209,237.298187 
z"/>
<path fill="#C5DCB5" opacity="1.000000" stroke="none" 
	d="
M212.706451,236.299683 
	C212.448563,236.745499 211.909088,237.128006 211.211823,237.309509 
	C211.510956,236.817795 211.967896,236.527084 212.706451,236.299683 
z"/>
<path fill="#A8CA95" opacity="1.000000" stroke="none" 
	d="
M253.676285,347.296112 
	C254.164993,354.470886 254.368591,361.948456 254.268219,369.716431 
	C253.773224,362.537506 253.582199,355.068207 253.676285,347.296112 
z"/>
<path fill="#A8CA95" opacity="1.000000" stroke="none" 
	d="
M252.767838,381.210388 
	C253.186111,382.203217 253.340179,383.400482 253.226196,384.802612 
	C252.806656,383.809906 252.655151,382.612366 252.767838,381.210388 
z"/>
<path fill="#A8CA95" opacity="1.000000" stroke="none" 
	d="
M252.721542,335.197327 
	C253.296951,335.800354 253.628799,336.606506 253.923553,337.766113 
	C253.416962,337.213196 252.947464,336.306793 252.721542,335.197327 
z"/>
<path fill="#9DC183" opacity="1.000000" stroke="none" 
	d="
M245.711517,300.165710 
	C246.247742,300.495819 246.582825,301.013092 246.890198,301.861023 
	C246.411789,301.578705 245.961075,300.965790 245.711517,300.165710 
z"/>
<path fill="#9DC183" opacity="1.000000" stroke="none" 
	d="
M244.224518,296.263062 
	C244.806580,296.476166 245.354767,297.004700 245.887878,297.858215 
	C245.312103,297.648285 244.751373,297.113373 244.224518,296.263062 
z"/>
</svg>