<svg xmlns="http://www.w3.org/2000/svg" width="747.8" height="63.5" viewBox="0 0 747.8 63.5">
  <path fill="#1391CB" d="M747.8 0c-22.8 12.3-56.2 20-93.5 20s-70.7-7.7-93.5-20c-22.7 12.3-56.2 20-93.4 20-37.3 0-70.8-7.7-93.5-20-22.8 12.3-56.2 20-93.5 20S209.7 12.3 187 0c-22.7 12.3-56.1 20-93.4 20C56.2 20 22.7 12.3 0 0v63.5h747.8V0z"/>
  <path fill="#30A9E0" d="M747.8 31c-37.3 0-70.7-7.8-93.5-20.1-22.7 12.3-56.2 20-93.5 20s-70.7-7.7-93.4-20c-22.8 12.3-56.2 20-93.5 20s-70.7-7.7-93.5-20c-22.7 12.3-56.2 20-93.5 20-37.2 0-70.7-7.7-93.4-20-22.8 12.3-56.2 20-93.5 20v32.6h747.8V30.9z"/>
  <path fill="#59C1EE" d="M747.8 22.9c-22.8 12.3-56.2 20-93.5 20s-70.7-7.7-93.5-20c-22.7 12.3-56.2 20-93.4 20-37.3 0-70.8-7.7-93.5-20-22.8 12.3-56.2 20-93.5 20s-70.7-7.7-93.5-20c-22.7 12.3-56.1 20-93.4 20C56.2 43 22.7 35.2 0 23v40.6h747.8V22.9z"/>
</svg>